Coordinates
version=1
nRows=29
nColumns=24
inDegrees=yes

Units are S.I. units (second, meters, Newtons, ...)
Angles are in degrees.

endheader
time	pelvis_tilt	pelvis_list	pelvis_rotation	pelvis_tx	pelvis_ty	pelvis_tz	hip_flexion_r	hip_adduction_r	hip_rotation_r	knee_angle_r	ankle_angle_r	subtalar_angle_r	mtp_angle_r	hip_flexion_l	hip_adduction_l	hip_rotation_l	knee_angle_l	ankle_angle_l	subtalar_angle_l	mtp_angle_l	lumbar_extension	lumbar_bending	lumbar_rotation
      5.84000000	     -1.67397075	     -4.69463015	     -5.90180321	     -0.55538174	      0.67697751	      0.19112146	    -13.60852886	      8.05727845	      8.06702786	    -26.44064498	     17.50505133	      5.48435613	      0.00000000	     22.61799702	     -4.58875144	     17.58671121	     -1.13561235	     -2.06958667	    -23.64233416	      0.00000000	    -17.33517334	      1.08062005	     11.47704408
      5.85000000	     -1.13356979	     -3.20048598	     -5.76802916	     -0.54057576	      0.67751671	      0.18869130	    -13.10142592	      6.09441859	      6.41398157	    -29.85160904	     15.04912074	      5.85905831	      0.00000000	     22.78392455	     -2.11029930	     17.59339068	     -4.38869697	     -3.52917489	    -24.10507725	      0.00000000	    -17.61567851	     -0.68198203	     10.93003477
      5.86000000	     -0.60374394	     -1.68802216	     -5.63994242	     -0.52591557	      0.67823460	      0.18640719	    -12.32056859	      4.14649044	      4.98652338	    -33.56578214	     11.87914807	      5.57870442	      0.00000000	     22.92238310	      0.35944098	     17.24438135	     -7.56109259	     -4.57492411	    -24.19009723	      0.00000000	    -17.90081275	     -2.48004773	     10.42131639
      5.87000000	     -0.09159191	     -0.27161897	     -5.51318886	     -0.51152230	      0.67912548	      0.18418602	    -11.25119631	      2.30128784	      3.71650361	    -37.52455583	      8.05580000	      4.89077444	      0.00000000	     22.96359324	      2.67359915	     16.74953449	    -10.49549020	     -5.22513976	    -24.06180262	      0.00000000	    -18.21503505	     -4.14055960	     10.03349965
      5.88000000	      0.34532121	      1.05686134	     -5.41751267	     -0.49738401	      0.68001279	      0.18207864	     -9.86065625	      0.56487643	      2.69337051	    -41.63767026	      3.91702310	      3.89263827	      0.00000000	     22.92494790	      4.81787549	     16.19849634	    -13.13806253	     -5.27853501	    -23.81566540	      0.00000000	    -18.46761475	     -5.67473091	      9.69196944
      5.89000000	      0.27753811	      1.99957791	     -5.46734316	     -0.48395920	      0.68045271	      0.18040587	     -7.62501846	     -0.59679306	      2.27964505	    -45.89371795	     -0.49490354	      2.34292352	      0.00000000	     23.35852552	      6.36387988	     15.32280387	    -15.64052794	     -4.20181059	    -22.77740076	      0.00000000	    -18.22213007	     -6.75329110	      9.77051365
      5.90000000	      0.26334814	      2.93579902	     -5.50264109	     -0.47073038	      0.68111191	      0.17874957	     -5.30980111	     -1.71449501	      2.06723086	    -50.03460348	     -4.43619201	      1.19192939	      0.00000000	     23.35134889	      7.85099820	     14.83851564	    -17.46157972	     -3.26931301	    -22.47007382	      0.00000000	    -18.05151690	     -7.79550996	      9.72405653
      5.91000000	      0.00469742	      3.75616973	     -5.56884606	     -0.45781565	      0.68170100	      0.17731103	     -2.59189498	     -2.56718112	      2.20036786	    -54.03707168	     -7.56198026	      0.58477779	      0.00000000	     23.28720294	      9.09873814	     14.52196627	    -18.72689907	     -2.03513435	    -22.16844731	      0.00000000	    -17.58169218	     -8.68715343	      9.76462074
      5.92000000	     -0.07266680	      4.46159689	     -5.68079693	     -0.44535573	      0.68276066	      0.17606589	      0.01118409	     -3.18452696	      2.57449469	    -57.76558066	     -9.56400510	      0.51167541	      0.00000000	     22.67852554	     10.17190339	     14.39907919	    -19.34409293	     -0.95494838	    -22.38426496	      0.00000000	    -17.44591085	     -9.44865805	      9.69401371
      5.93000000	     -0.23338596	      5.08804152	     -5.69233937	     -0.43303706	      0.68399050	      0.17487022	      2.69351739	     -3.58664604	      3.04945912	    -61.16104752	    -10.10468467	      1.44964617	      0.00000000	     21.81890778	     11.12068260	     14.63020107	    -19.39846566	      0.14091447	    -22.60983861	      0.00000000	    -17.20161960	    -10.08827946	      9.50633607
      5.94000000	     -0.32053770	      5.56315501	     -5.60222316	     -0.42095031	      0.68560892	      0.17373555	      5.24800238	     -3.74413838	      3.46631435	    -64.12528123	     -9.45125128	      2.89292721	      0.00000000	     20.58749546	     11.87997275	     15.14789571	    -18.97123932	      1.11465674	    -22.84596031	      0.00000000	    -17.11309136	    -10.53111424	      9.24261126
      5.95000000	     -0.50508908	      5.92482886	     -5.53182113	     -0.40889822	      0.68736819	      0.17278831	      7.85790351	     -3.68528260	      3.97159479	    -66.65232832	     -7.75852836	      4.83803675	      0.00000000	     19.18198629	     12.41686129	     15.81848709	    -18.07626954	      1.87234137	    -23.23204702	      0.00000000	    -16.87368353	    -10.84307726	      8.89885682
      5.96000000	     -0.59616430	      6.11885764	     -5.30974692	     -0.39697531	      0.68938646	      0.17178384	     10.22696882	     -3.45331965	      4.26185806	    -68.64575904	     -5.21275988	      6.91772059	      0.00000000	     17.52378847	     12.76590558	     16.73237679	    -16.96648227	      2.52048620	    -23.48473151	      0.00000000	    -16.82456877	    -10.94135823	      8.47646179
      5.97000000	     -0.77511101	      6.28371517	     -5.16185994	     -0.38496009	      0.69136652	      0.17082572	     12.65315985	     -3.21486006	      4.54289059	    -70.19673953	     -2.40436553	      8.86697815	      0.00000000	     15.74625973	     13.00269772	     17.96707930	    -15.48382823	      2.47333505	    -24.51010519	      0.00000000	    -16.60888319	    -11.01128456	      8.07733191
      5.98000000	     -0.76046611	      6.13497102	     -4.80681598	     -0.37294131	      0.69368640	      0.16973682	     14.63736048	     -2.72870400	      4.46613705	    -71.09155270	      0.40284630	     10.31570738	      0.00000000	     13.66899561	     12.91499451	     19.48514671	    -13.93961068	      2.39365732	    -25.46009360	      0.00000000	    -16.71382700	    -10.67627383	      7.51342487
      5.99000000	     -0.82920403	      5.84650363	     -4.36807726	     -0.36113236	      0.69581777	      0.16866754	     16.63683155	     -2.15396435	      4.19340805	    -71.53704722	      3.00242430	     11.14318821	      0.00000000	     11.79839919	     12.61756624	     20.61963188	    -12.55290922	      2.64897758	    -25.72027212	      0.00000000	    -16.81176165	    -10.18165787	      6.82264163
      6.00000000	     -0.78007035	      5.46249729	     -3.85676965	     -0.34928496	      0.69794037	      0.16750870	     18.39458355	     -1.62993190	      3.60394578	    -71.50205524	      5.16408745	     10.89001388	      0.00000000	      9.66011963	     12.18821497	     22.56150893	    -10.95777597	      2.09949277	    -27.16956166	      0.00000000	    -17.07513369	     -9.59123016	      6.20457043
      6.01000000	     -0.86546388	      4.97322497	     -3.27710564	     -0.33772319	      0.69972395	      0.16642513	     20.22531679	     -1.02985042	      2.92967637	    -71.05935507	      6.96366354	     10.01431114	      0.00000000	      7.86241346	     11.59071774	     23.96732623	     -9.61236233	      2.03270245	    -27.80002692	      0.00000000	    -17.28746739	     -8.88494291	      5.39084560
      6.02000000	     -0.83266333	      4.42041871	     -2.69809731	     -0.32611156	      0.70141645	      0.16527636	     21.79502414	     -0.48829995	      2.13675604	    -70.16334706	      8.46694687	      8.56095524	      0.00000000	      5.89569875	     10.87879951	     25.57737813	     -8.14863650	      1.52415703	    -29.10422169	      0.00000000	    -17.61239922	     -8.09481097	      4.78455337
      6.03000000	     -0.99609626	      3.88510803	     -2.02525991	     -0.31482949	      0.70261733	      0.16416495	     23.51763365	     -0.02278700	      1.24895332	    -68.90030379	      9.51752325	      6.35581525	      0.00000000	      4.36961140	     10.17238238	     26.73053517	     -6.99084917	      1.53575921	    -29.57111480	      0.00000000	    -17.80253727	     -7.33689323	      3.96735340
      6.04000000	     -1.04808027	      3.30639517	     -1.34770013	     -0.30357056	      0.70372060	      0.16309959	     24.95129862	      0.43133943	      0.38742359	    -67.16590937	     10.33943628	      3.91329291	      0.00000000	      2.72200677	      9.36494243	     28.11648369	     -5.78675616	      1.28759819	    -30.44481783	      0.00000000	    -18.12895679	     -6.54818369	      3.34847296
      6.05000000	     -1.21828185	      2.80137397	     -0.69744055	     -0.29245200	      0.70437095	      0.16205913	     26.42627751	      0.76875480	     -0.39853063	    -65.07964542	     10.83020941	      1.20166678	      0.00000000	      1.34961437	      8.64762140	     29.05769178	     -4.75996718	      1.33203914	    -30.93908422	      0.00000000	    -18.31451586	     -5.83706658	      2.64404268
      6.06000000	     -1.52070487	      2.38256118	     -0.26462044	     -0.28139440	      0.70455958	      0.16137134	     27.93277957	      1.13147734	     -0.82485214	    -62.61569722	     11.09825274	     -1.61450316	      0.00000000	      0.21984221	      8.01522378	     29.60988947	     -3.86569663	      1.59780893	    -31.14751961	      0.00000000	    -18.30411866	     -5.30974103	      2.25582807
      6.07000000	     -1.47471613	      1.93725599	      0.44852880	     -0.27029052	      0.70499448	      0.16036749	     28.77450466	      1.34941001	     -1.44567170	    -59.62260268	     11.33665738	     -4.23928012	      0.00000000	     -1.30199943	      7.31402848	     30.78945972	     -2.94304083	      1.44628305	    -31.92999204	      0.00000000	    -18.75097523	     -4.67213909	      1.53983759
      6.08000000	     -1.77708381	      1.68019478	      0.82981218	     -0.25915969	      0.70462182	      0.15974291	     29.91654911	      1.54448832	     -1.59189268	    -56.35399492	     11.42841963	     -6.89630777	      0.00000000	     -2.35206310	      6.85692082	     31.25742192	     -2.17148317	      1.66346299	    -32.24314939	      0.00000000	    -18.67395391	     -4.31957134	      1.24721689
      6.09000000	     -2.00644797	      1.46829434	      1.26761302	     -0.24792234	      0.70413770	      0.15916813	     30.71578873	      1.70229750	     -1.61288020	    -52.60258043	     11.55350861	     -9.38364228	      0.00000000	     -3.45726769	      6.43483709	     31.80093935	     -1.46453541	      1.87848003	    -32.57430232	      0.00000000	    -18.65475359	     -4.04749723	      0.82862747
      6.10000000	     -2.16110674	      1.32475515	      1.66788115	     -0.23656029	      0.70352365	      0.15864733	     31.18317535	      1.83420883	     -1.42677033	    -48.39248020	     11.75175230	    -11.74486171	      0.00000000	     -4.65399727	      6.06890737	     32.31343812	     -0.75746111	      2.01357975	    -32.92749646	      0.00000000	    -18.69148078	     -3.83558229	      0.41151929
      6.11000000	     -2.02289245	      1.25031582	      2.02571487	     -0.22507288	      0.70304201	      0.15827548	     31.04556481	      1.97971115	     -0.94185437	    -43.68631137	     12.09116738	    -13.96674740	      0.00000000	     -6.21447243	      5.72961397	     32.80887190	      0.02099812	      1.92915348	    -33.51319717	      0.00000000	    -19.08324898	     -3.70700733	     -0.07989417
      6.12000000	     -2.16412260	      1.26560345	      2.39154202	     -0.21335205	      0.70201691	      0.15780753	     30.94505754	      2.00676147	     -0.30056110	    -38.54402234	     12.48617043	    -16.04844560	      0.00000000	     -7.45439006	      5.52610655	     33.08083278	      0.70936531	      2.00933144	    -33.74960807	      0.00000000	    -19.02405810	     -3.65120122	     -0.53928605
